/* XPM */
static char *img[] = {
"32 32 3 1",
"! c None",
"# c #000000",
"$ c #ffffff",
"!!!!!!!!!!!!!!!!!!!!!!!!!!!!!!!!",
"!!!!!!!!!!!!!!######!!!!!!!!!!!!",
"!!!!!!!!!!!!!########!!!!!!!!!!!",
"!!!!!!!!!!!!##########!!!!!!!!!!",
"!!!!!!!!!!!!##########!!!!!!!!!!",
"!!!!!!!!!!!!#$$##$$###!!!!!!!!!!",
"!!!!!!!!!!!!#$####$###!!!!!!!!!!",
"!!!!!!!!!!!!###$$#####!!!!!!!!!!",
"!!!!!!!!!!!!#$$$$$$###!!!!!!!!!!",
"!!!!!!!!!!!!#$$$$$$$##!!!!!!!!!!",
"!!!!!!!!!!!!##$$$$#####!!!!!!!!!",
"!!!!!!!!!!!!############!!!!!!!!",
"!!!!!!!!!!!##############!!!!!!!",
"!!!!!!!!!!!###$$$$$$#####!!!!!!!",
"!!!!!!!!!!###$$$$$$$$#####!!!!!!",
"!!!!!!!!!!##$$$$$$$$$$#####!!!!!",
"!!!!!!!!!##$$$$$$$$$$$$####!!!!!",
"!!!!!!!!###$$$$$$$$$$$$####!!!!!",
"!!!!!!!!##$$$$$$$$$$$$$#####!!!!",
"!!!!!!!###$$$$$$$$$$$$$#####!!!!",
"!!!!!!!###$$$$$$$$$$$$######!!!!",
"!!!!!!#$###$$$$$$$$$$#######!!!!",
"!!!!###$$$##$$$$$$$$$#$#####!!!!",
"!!!#$$$$$$$##$$$$$$$#$$$##$$#!!!",
"!!!#$$$$$$$$##$$$$$$#$$$$$$$#!!!",
"!!!#$$$$$$$$##$$$$$$#$$$$$$$$#!!",
"!!!#$$$$$$$$$##$$$$$#$$$$$$$$$#!",
"!!!#$$$$$$$$$########$$$$$$$$$#!",
"!!!!#$$$$$$$$$#######$$$$$$$##!!",
"!!!!!###$$$$$#!!!!!!#$$$$$##!!!!",
"!!!!!!!!##$$$#!!!!!!#$$$##!!!!!!",
"!!!!!!!!!!###!!!!!!!!###!!!!!!!!"
};
